<svg xmlns="http://www.w3.org/2000/svg" xmlns:xlink="http://www.w3.org/1999/xlink" width="118.249" height="226.871" viewBox="0 0 118.249 226.871">
  <defs>
    <clipPath id="clip-path">
      <rect id="Rectangle_2376" data-name="Rectangle 2376" width="118.249" height="226.871" fill="none"/>
    </clipPath>
  </defs>
  <g id="Groupe_1425" data-name="Groupe 1425" transform="translate(0)">
    <g id="Groupe_1409" data-name="Groupe 1409" transform="translate(0)">
      <rect id="Rectangle_2375" data-name="Rectangle 2375" width="118.249" height="226.871" transform="translate(0 0)" fill="#282626"/>
      <g id="Groupe_1408" data-name="Groupe 1408">
        <g id="Groupe_1407" data-name="Groupe 1407" clip-path="url(#clip-path)">
          <path id="Tracé_2567" data-name="Tracé 2567" d="M72.739,235.789a5.187,5.187,0,0,1-2.353-2.509,9.692,9.692,0,0,1-.6-3.746V152.964l-.28-.3-27.217,1.42v2.336c.951.1,2,.261,3.105.481a10.562,10.562,0,0,1,3.682,1.319,7.713,7.713,0,0,1,2.794,3.556,11.174,11.174,0,0,1,.943,4.3v64.091a8.439,8.439,0,0,1-.784,3.879,5.315,5.315,0,0,1-3.054,2.459,12.362,12.362,0,0,1-2.739.629q-1,.122-2.045.214v2.281H77.259v-2.346a20.229,20.229,0,0,1-2-.469,10.288,10.288,0,0,1-2.517-1.025" transform="translate(-21.115 -76.223)" fill="#fff"/>
          <path id="Tracé_2568" data-name="Tracé 2568" d="M146.491,266.8a5.316,5.316,0,0,1-3.055-2.458,8.439,8.439,0,0,1-.783-3.879V231.627c-.028-5.478-1.51-9.946-4.423-13.273-2.785-3.186-7.029-4.822-12.55-4.954-.235-.006-.435-.051-.675-.051a25.915,25.915,0,0,0-7.1.937,19.8,19.8,0,0,0-5.264,2.235,31.2,31.2,0,0,0-4.15,3.094l-.308.274-.055,3.33a16.4,16.4,0,0,1,3.449-1.693,13.955,13.955,0,0,1,4.61-.747,8.408,8.408,0,0,1,7.091,3.328c1.577,2.09,2.377,5.207,2.4,9.248,0,.073.011.134.011.207v26.9a10.882,10.882,0,0,1-.557,3.936,4.526,4.526,0,0,1-2.167,2.351,7.484,7.484,0,0,1-2.649.682q-.988.108-1.812.2v2.3h32.551v-2.3c-.617-.056-1.228-.118-1.827-.191a12.365,12.365,0,0,1-2.739-.629" transform="translate(-53.984 -106.52)" fill="#fff"/>
        </g>
      </g>
    </g>
  </g>
</svg>
