<svg xmlns="http://www.w3.org/2000/svg" xmlns:xlink="http://www.w3.org/1999/xlink" width="100.937" height="101.006" viewBox="0 0 100.937 101.006">
  <defs>
    <clipPath id="clip-path">
      <rect id="Rectangle_2390" data-name="Rectangle 2390" width="100.937" height="101.006" fill="none"/>
    </clipPath>
  </defs>
  <g id="Groupe_1457" data-name="Groupe 1457" transform="translate(0 0)">
    <g id="Groupe_1456" data-name="Groupe 1456" transform="translate(0 0)">
      <path id="Tracé_2581" data-name="Tracé 2581" d="M97.458,28.551l-6.072-1.493c-.348-.112-.46-.236-.46-.348-.348-1.032-.92-2.177-1.257-2.974-.112-.236-.236-.46-.112-.7l3.434-5.5a4.815,4.815,0,0,0-.808-5.735L89.1,8.709a4.488,4.488,0,0,0-5.611-.572L78.1,11.346a1.2,1.2,0,0,1-.685,0c-.92-.46-1.953-.8-3.1-1.257-.112,0-.224-.112-.224-.46l-1.6-6.072A4.769,4.769,0,0,0,68,0H63.667a4.657,4.657,0,0,0-4.579,3.558L57.606,9.629c-.123.348-.236.46-.572.46-.92.46-1.953.8-2.862,1.257-.236.123-.348.123-.7,0L48.1,8.137a4.714,4.714,0,0,0-5.724.572l-3.1,3.1a4.669,4.669,0,0,0-.572,5.847,2.009,2.009,0,0,0,2.75.7,2.054,2.054,0,0,0,.685-2.761c-.348-.572-.112-.8,0-.909l2.974-2.985a.785.785,0,0,1,.92-.112l5.5,3.21a4.208,4.208,0,0,0,4.354.112c.909-.348,1.717-.685,2.4-.92a4.7,4.7,0,0,0,3.21-3.367L62.847,4.59a.851.851,0,0,1,.8-.572H68a.742.742,0,0,1,.572.449l1.6,6.195a3.949,3.949,0,0,0,2.974,3.21L75.563,14.9a4.668,4.668,0,0,0,4.579-.112l5.376-3.367a.709.709,0,0,1,.7.112l3.086,3.1a.708.708,0,0,1,.236.909L86.09,20.93a5.108,5.108,0,0,0-.112,4.489,15.389,15.389,0,0,1,1.032,2.525,5.072,5.072,0,0,0,3.367,2.974l6.072,1.493a.64.64,0,0,1,.572.685v4.366c0,.449-.348.449-.572.572l-6.072,1.6a4.491,4.491,0,0,0-3.367,3.21c-.224.685-.685,1.481-1.032,2.4a4.488,4.488,0,0,0,.236,4.354l3.2,5.275c.348.572,0,.808-.112.92l-3.086,3.1c-.123.224-.46.224-.7.112a2,2,0,0,0-2.166,3.367,3.886,3.886,0,0,0,2.514.808,4.492,4.492,0,0,0,3.21-1.38l3.086-3.1a4.791,4.791,0,0,0,.808-5.724l-3.367-5.4a.573.573,0,0,1-.112-.572,22.679,22.679,0,0,0,1.257-2.974c.112-.236.224-.46.572-.46l5.948-1.6a4.489,4.489,0,0,0,3.67-4.489V33.13a4.646,4.646,0,0,0-3.546-4.579ZM71.119,85.989A39.628,39.628,0,0,1,15.577,29.46a2.008,2.008,0,0,0,.021-2.84l-.021-.021a2.245,2.245,0,0,0-2.862,0A43.635,43.635,0,0,0,73.868,88.851a1.986,1.986,0,0,0-2.75-2.862M43.634,22.244A35.251,35.251,0,1,0,78.784,57.6V57.55a35.307,35.307,0,0,0-35.15-35.307M72.375,59.481H74.62a30.838,30.838,0,0,1-7.676,18.574l-1.594-1.6a2.244,2.244,0,0,0-2.873,0,2.008,2.008,0,0,0-.021,2.84l.021.021,1.6,1.6A30.7,30.7,0,0,1,45.576,88.66V86.415a2.021,2.021,0,0,0-1.942-2.054,2.053,2.053,0,0,0-2.11,1.964V88.57a30.693,30.693,0,0,1-18.551-7.688l1.6-1.6a2.008,2.008,0,0,0,.021-2.84l-.021-.021a2.245,2.245,0,0,0-2.862,0L20.2,78.077a31.523,31.523,0,0,1-7.721-18.6h2.245a2.02,2.02,0,0,0,1.953-1.953,2.042,2.042,0,0,0-1.953-2.065H12.48A31.525,31.525,0,0,1,20.2,36.912l1.6,1.6a2.024,2.024,0,1,0,2.862-2.862l-1.6-1.6a31.421,31.421,0,0,1,18.461-7.676v2.245a2.042,2.042,0,0,0,2.065,1.953,2.009,2.009,0,0,0,1.942-1.953V26.373A31.424,31.424,0,0,1,64.082,34.05l-1.6,1.6a2.031,2.031,0,0,0,2.873,2.862l1.594-1.6A30.838,30.838,0,0,1,74.62,55.485H72.375A2.065,2.065,0,0,0,70.31,57.55a2.043,2.043,0,0,0,2.065,1.93M60.928,55.463H48.785a5.724,5.724,0,0,0-5.151-3.67,5.611,5.611,0,0,0-5.612,5.61c0,.042,0,.083,0,.125a6.5,6.5,0,0,0,.46,2.177L33.208,64.98a2.031,2.031,0,0,0,2.862,2.873l5.275-5.275a5.19,5.19,0,0,0,2.245.46,5.61,5.61,0,0,0,5.2-3.558H60.928a2.009,2.009,0,0,0,1.919-1.93,2.042,2.042,0,0,0-1.942-2.065Zm-17.294,3.58a1.537,1.537,0,0,1-1.6-1.468V57.55a1.549,1.549,0,0,1,3.086-.264,1.479,1.479,0,0,1,0,.264,1.516,1.516,0,0,1-1.481,1.493M59.548,18.922a2.132,2.132,0,0,0-1.257,2.637,1.952,1.952,0,0,0,2.5,1.178c.048-.017.094-.036.14-.056,9.158-3.367,19.46,5.5,17.171,14.59a2.042,2.042,0,0,0,1.38,2.525A2.244,2.244,0,0,0,81.993,38.3C84.967,26.026,71.826,14.59,59.548,18.922" transform="translate(0 0.001)" fill="#ED1849"/>
    </g>
  </g>
</svg>
