<svg xmlns="http://www.w3.org/2000/svg" xmlns:xlink="http://www.w3.org/1999/xlink" width="93.359" height="101.666" viewBox="0 0 93.359 101.666">
  <defs>
    <clipPath id="clip-path">
      <rect id="Rectangle_2387" data-name="Rectangle 2387" width="93.359" height="101.666" fill="none"/>
    </clipPath>
  </defs>
  <g id="Groupe_1452" data-name="Groupe 1452" transform="translate(0 0)">
    <g id="Groupe_1452-2" data-name="Groupe 1452" transform="translate(0 0)">
      <path id="Tracé_2570" data-name="Tracé 2570" d="M21.294,52.268a21.132,21.132,0,0,0,21.3-20.907,27.172,27.172,0,0,0-4.2-14.3,2.654,2.654,0,0,0-4.728.488A32.488,32.488,0,0,0,20.563.408,2.678,2.678,0,0,0,17.875.319a2.749,2.749,0,0,0-1.445,2.312c-.208,5.35-1.731,7.788-6.205,12.4a15.8,15.8,0,0,0-4.066,7.45,2.724,2.724,0,0,0-4.971.606A29.187,29.187,0,0,0,0,31.361,21.129,21.129,0,0,0,21.294,52.268M25,37.64a2.36,2.36,0,0,0,3.955,1.634,7.553,7.553,0,0,1,.089,1.162,8.032,8.032,0,0,1-8.132,7.911,6.925,6.925,0,0,1-7.345-6.477c-.006-.074-.008-.146-.01-.221a9.028,9.028,0,0,1,3.291-7.219l.416-.425a12.736,12.736,0,0,0,3.666-5.628A13.132,13.132,0,0,1,25,37.64M4.241,27a6.18,6.18,0,0,0,2.873,2.189,1.936,1.936,0,0,0,2.459-1.206,1.958,1.958,0,0,0,.082-.925,11.738,11.738,0,0,1,3.351-9.329c4.309-4.451,6.527-7.582,7.141-12.9A28.649,28.649,0,0,1,31,23a1.939,1.939,0,0,0,2.224,1.6,1.984,1.984,0,0,0,.569-.188,6.419,6.419,0,0,0,2.568-3.042,22.906,22.906,0,0,1,2.36,9.987,16.868,16.868,0,0,1-6.642,13.356,11.524,11.524,0,0,0,.835-4.284,10.985,10.985,0,0,0-1.776-6.04,2.319,2.319,0,0,0-2.323-1.024,2.4,2.4,0,0,0-.532.15,16.94,16.94,0,0,0-7.252-9.939,2.346,2.346,0,0,0-3.569,1.91c-.1,2.485-.793,3.58-2.966,5.809l-.387.4A12.875,12.875,0,0,0,9.68,41.647a10.463,10.463,0,0,0,.352,2.685,16.837,16.837,0,0,1-6.16-12.971A25.5,25.5,0,0,1,4.241,27" transform="translate(0 0.001)" fill="#ED1849"/>
      <path id="Tracé_2571" data-name="Tracé 2571" d="M44.377,77.922c.495.037.989.056,1.478.056a18.284,18.284,0,0,0,12.524-4.925,18.829,18.829,0,0,0,6.016-13.791c0-7.5-3.74-12.946-7.7-18.716a50.837,50.837,0,0,1-8.365-16.28,2.572,2.572,0,0,0-4.983,0,50.874,50.874,0,0,1-8.363,16.28c-3.437,5.01-6.687,9.741-7.508,15.806a19.448,19.448,0,0,0,4.132,14.768,18.116,18.116,0,0,0,12.771,6.8M31.559,56.9c.688-5.092,3.53-9.232,6.819-14.014a65.182,65.182,0,0,0,7.468-13.033A65.276,65.276,0,0,0,53.3,42.878c3.734,5.453,6.968,10.164,6.968,16.383A14.719,14.719,0,0,1,55.58,70.029a14.2,14.2,0,0,1-10.885,3.784A14.026,14.026,0,0,1,34.8,68.529,15.313,15.313,0,0,1,31.559,56.9" transform="translate(28.965 23.69)" fill="#ED1849"/>
      <path id="Tracé_2572" data-name="Tracé 2572" d="M40.756,51.7h.155a2.062,2.062,0,1,0,.15-4.122,6.055,6.055,0,0,1-4.293-2.267,5.884,5.884,0,0,1-1.344-3.862,2.06,2.06,0,0,0-2.005-2.114,2,2,0,0,0-2.112,1.877c0,.043,0,.087,0,.13A10.235,10.235,0,0,0,40.756,51.7" transform="translate(33.205 41.724)" fill="#ED1849"/>
      <path id="Tracé_2573" data-name="Tracé 2573" d="M6.355,84.671A2.061,2.061,0,0,1,4.9,81.153L79.124,6.927a2.061,2.061,0,0,1,2.914,2.914L7.812,84.067a2.055,2.055,0,0,1-1.457.6" transform="translate(4.555 6.708)" fill="#ED1849"/>
    </g>
  </g>
</svg>
