<svg xmlns="http://www.w3.org/2000/svg" xmlns:xlink="http://www.w3.org/1999/xlink" width="87.243" height="87.123" viewBox="0 0 87.243 87.123">
  <defs>
    <clipPath id="clip-path">
      <rect id="Rectangle_2389" data-name="Rectangle 2389" width="87.243" height="87.123" fill="#ED1849"/>
    </clipPath>
  </defs>
  <g id="Groupe_1455" data-name="Groupe 1455" transform="translate(-28.625 -40.628)">
    <g id="Groupe_1454" data-name="Groupe 1454" transform="translate(28.625 40.628)" >
      <path id="Tracé_2578" data-name="Tracé 2578" d="M84.609,70l-29.445-30,21.9-21.9,3.035-.881a3.351,3.351,0,0,0,1.879-1.394L86.93,8.193a1.571,1.571,0,0,0-.207-1.967L80.958.462A1.569,1.569,0,0,0,78.993.253L71.4,5.154a3.357,3.357,0,0,0-1.389,1.853l-.933,3.109L47.251,31.947l-7.359-7.5.283-.288a1.573,1.573,0,0,0,0-2.2l-4.329-4.41c3.919-3.507,7-5.593,17.871-7.591a1.572,1.572,0,0,0,.838-2.647,21.535,21.535,0,0,0-15.19-5.875h0A20.441,20.441,0,0,0,24.575,7.312L10.688,21.459a1.573,1.573,0,0,0,0,2.2l.975.992a2.286,2.286,0,0,1,0,3.187,2.118,2.118,0,0,1-1.523.645h0a2.118,2.118,0,0,1-1.521-.645l-.975-.993a1.621,1.621,0,0,0-2.244,0L1.6,30.713a5.676,5.676,0,0,0,0,7.911l8.264,8.42a5.483,5.483,0,0,0,7.754.092l.093-.093,3.793-3.866a1.571,1.571,0,0,0,0-2.2l-.99-1.01a2.285,2.285,0,0,1,0-3.186,2.168,2.168,0,0,1,3.046,0l.992,1.009a1.619,1.619,0,0,0,2.243,0l.31-.316,3.007,3.064a5.578,5.578,0,0,0-.552,2.079l-3.176,1.1a7.05,7.05,0,0,0-2.668,1.672L3.8,65.306A12.78,12.78,0,1,0,21.878,83.381L41.795,63.463a7.081,7.081,0,0,0,1.672-2.668l1.245-3.587a5.61,5.61,0,0,0,1.376-.4l25.7,26.178a8.958,8.958,0,0,0,12.668.157q.079-.077.157-.157A9.312,9.312,0,0,0,84.609,70ZM25.674,34.446a5.386,5.386,0,0,0-7.4.13,5.444,5.444,0,0,0-.09,7.5L15.472,44.84a2.393,2.393,0,0,1-3.359,0L3.849,36.42a2.514,2.514,0,0,1,0-3.5l2.674-2.725a5.236,5.236,0,0,0,3.615,1.439h0a5.243,5.243,0,0,0,3.767-1.587,5.448,5.448,0,0,0,.1-7.481L26.82,9.515A17.32,17.32,0,0,1,39.36,4.581h0A19.533,19.533,0,0,1,49.854,7.525c-9.621,2.1-12.713,4.582-17.336,8.8a1.572,1.572,0,0,0-.1,2.221l.04.043,4.394,4.476Zm45.754-22.23a2.456,2.456,0,0,0,.617-1.036l1.067-3.386,6.521-4.211L83.6,7.545l-4.374,6.66-3.2.93a2.469,2.469,0,0,0-1.056.624L45.444,45.282,41.9,41.741Zm-29.377,41.2-8.646-8.647a2.5,2.5,0,0,1,3.533-3.549l.008.009,8.646,8.646a2.5,2.5,0,0,1-3.541,3.541ZM37.707,26.712l7.32,7.459L39.68,39.518l-.51-.51a5.648,5.648,0,0,0-6.939-.808l-2.9-2.955ZM40.5,59.762a3.932,3.932,0,0,1-.926,1.478L19.655,81.158A9.636,9.636,0,1,1,6.028,67.529L25.946,47.612a3.884,3.884,0,0,1,1.474-.923l2.3-.8L41.293,57.467Zm41.866,21.02a5.949,5.949,0,0,1-8.336,0L48.515,54.791a5.647,5.647,0,0,0-.7-7.137l-.149-.149,5.274-5.274L82.364,72.208a6.15,6.15,0,0,1,0,8.575" transform="translate(0 0)" fill="#ED1849"/>
      <path id="Tracé_2579" data-name="Tracé 2579" d="M84.593,294.8a1.572,1.572,0,0,1-1.111-2.683L96.45,279.15a1.572,1.572,0,0,1,2.223,2.223L85.7,294.342A1.566,1.566,0,0,1,84.593,294.8Z" transform="translate(-66.707 -223.931)" fill="#ED1849"/>
      <path id="Tracé_2580" data-name="Tracé 2580" d="M47.922,372.736a1.572,1.572,0,0,1-1.111-2.683l2.883-2.882a1.572,1.572,0,0,1,2.223,2.223l-2.883,2.882a1.567,1.567,0,0,1-1.111.461" transform="translate(-37.242 -294.659)" fill="#ED1849"/>
    </g>
  </g>
</svg>
